<svg width="32" height="32" viewBox="0 0 32 32" xmlns="http://www.w3.org/2000/svg">
<path fill-rule="evenodd" clip-rule="evenodd" d="M6.76173 25.3333C7.40973 20.816 11.3057 17.3333 16.0004 17.3333C20.6937 17.3333 24.5897 20.816 25.2377 25.3333H6.76173ZM12.0004 10.6667C12.0004 8.46133 13.7937 6.66667 16.0004 6.66667C18.2057 6.66667 20.0004 8.46133 20.0004 10.6667C20.0004 12.872 18.2057 14.6667 16.0004 14.6667C13.7937 14.6667 12.0004 12.872 12.0004 10.6667V10.6667ZM20.5071 15.552C21.8271 14.3333 22.6671 12.604 22.6671 10.6667C22.6671 6.984 19.6817 4 16.0004 4C12.3177 4 9.33373 6.984 9.33373 10.6667C9.33373 12.604 10.1737 14.3333 11.4937 15.552C7.10573 17.3387 4.0004 21.6427 4.0004 26.6667C4.0004 27.404 4.5964 28 5.33373 28H26.6671C27.4031 28 28.0004 27.404 28.0004 26.6667C28.0004 21.6427 24.8964 17.3387 20.5071 15.552V15.552Z"/>
</svg>
