<svg width="24" height="24" viewBox="0 0 24 24" fill="none" xmlns="http://www.w3.org/2000/svg">
<path fill-rule="evenodd" clip-rule="evenodd" d="M18.707 6.29301L14.707 2.29301C14.316 1.90201 13.684 1.90201 13.293 2.29301C12.902 2.68401 12.902 3.31601 13.293 3.70701L15.586 6.00001H8C6.346 6.00001 5 7.34601 5 9.00001V21C5 21.553 5.447 22 6 22C6.553 22 7 21.553 7 21V9.00001C7 8.44801 7.448 8.00001 8 8.00001H15.586L13.293 10.293C12.902 10.684 12.902 11.316 13.293 11.707C13.488 11.902 13.744 12 14 12C14.256 12 14.512 11.902 14.707 11.707L18.707 7.70701C19.098 7.31601 19.098 6.68401 18.707 6.29301Z" fill="black"/>
</svg>
