<svg width="32" height="32" viewBox="0 0 32 32" fill="none" xmlns="http://www.w3.org/2000/svg">
<rect width="32" height="32" rx="8" fill="#E0E0E0"/>
<path d="M9.29616 24.904L10.6882 24.2081L12.0802 24.904C12.3442 25.024 12.6321 25.024 12.8722 24.904L14.2642 24.2081L15.6562 24.904C15.9202 25.024 16.2081 25.024 16.4482 24.904L17.8402 24.2081L19.2322 24.904C19.4962 25.024 19.7841 25.024 20.0481 24.904L21.4641 24.2081L22.8561 24.904C23.3122 25.12 23.8401 24.952 24.0561 24.496C24.1281 24.376 24.152 24.232 24.152 24.088V8.8C24.152 7.81596 23.36 7 22.352 7H9.8C8.81596 7 8 7.792 8 8.8V24.112C8 24.6161 8.40798 25 8.91204 25C9.03191 25 9.17605 24.9761 9.29592 24.9041L9.29616 24.904ZM9.80025 8.79996H22.4003V22.648L21.8962 22.4079C21.6322 22.2879 21.3442 22.2879 21.1042 22.4079L19.7122 23.1038L18.2962 22.4079C18.0322 22.2879 17.7443 22.2879 17.5042 22.4079L16.1122 23.1038L14.7202 22.4079C14.4562 22.2879 14.1683 22.2879 13.9282 22.4079L12.5362 23.1038L11.1203 22.4079C10.8562 22.2879 10.5683 22.2879 10.3043 22.4079L9.80021 22.648L9.80025 8.79996Z" fill="#4C4A4A"/>
<path d="M16 12.7622C15.2549 12.7948 14.8824 13.0637 14.8824 13.5689C14.8824 14.017 15.2314 14.3348 15.9294 14.5222C15.9373 14.5222 15.949 14.5263 15.9647 14.5344C15.9882 14.5344 16.0039 14.5385 16.0118 14.5467C16.0745 14.563 16.1059 14.5344 16.1059 14.4611V12.8722C16.1059 12.7989 16.0706 12.7622 16 12.7622ZM16.0471 18.2256C16.7529 18.1604 17.1059 17.863 17.1059 17.3333C17.1059 17.1052 17.0235 16.9137 16.8588 16.7589C16.702 16.5959 16.4314 16.4533 16.0471 16.3311C15.9765 16.3148 15.9412 16.3393 15.9412 16.4044V18.1278C15.9412 18.193 15.9765 18.2256 16.0471 18.2256ZM14.6 15.8056C13.5333 15.2759 13 14.5304 13 13.5689C13 12.86 13.2549 12.2937 13.7647 11.87C14.2824 11.4463 15.0275 11.2304 16 11.2222C16.0706 11.2222 16.1059 11.1856 16.1059 11.1122V10.6967C16.1059 10.5093 16.1686 10.3463 16.2941 10.2078C16.4275 10.0693 16.5843 10 16.7647 10H16.7882C16.9686 10 17.1255 10.0693 17.2588 10.2078C17.3922 10.3463 17.4588 10.5093 17.4588 10.6967V11.21C17.4588 11.2752 17.4902 11.3159 17.5529 11.3322C17.7882 11.3648 17.9608 11.3933 18.0706 11.4178C18.2588 11.4585 18.4118 11.5644 18.5294 11.7356C18.6471 11.8985 18.7059 12.0819 18.7059 12.2856V12.5789C18.7059 12.7419 18.6392 12.8722 18.5059 12.97C18.3804 13.0678 18.2392 13.0963 18.0824 13.0556C17.8471 12.9904 17.6706 12.9456 17.5529 12.9211C17.4902 12.9048 17.4588 12.9293 17.4588 12.9944V14.8033C17.4588 14.8604 17.4549 14.9011 17.4471 14.9256C17.4314 14.9989 17.4471 15.0478 17.4941 15.0722C18.0353 15.333 18.4196 15.6426 18.6471 16.0011C18.8824 16.3515 19 16.7833 19 17.2967C19 18.0626 18.749 18.6574 18.2471 19.0811C17.7529 19.5048 17.0157 19.733 16.0353 19.7656C15.9725 19.7656 15.9412 19.8022 15.9412 19.8756V20.3033C15.9412 20.4907 15.8745 20.6537 15.7412 20.7922C15.6157 20.9307 15.4627 21 15.2824 21H15.2588C15.0784 21 14.9216 20.9307 14.7882 20.7922C14.6549 20.6537 14.5882 20.4907 14.5882 20.3033V19.79C14.5882 19.7167 14.5608 19.6759 14.5059 19.6678C14.302 19.6352 14.098 19.5863 13.8941 19.5211C13.7059 19.4641 13.5529 19.35 13.4353 19.1789C13.3176 18.9996 13.2588 18.8041 13.2588 18.5922V18.2378C13.2588 18.083 13.3216 17.9648 13.4471 17.8833C13.5804 17.7937 13.7176 17.7815 13.8588 17.8467C14.0706 17.9363 14.2824 18.0096 14.4941 18.0667C14.5569 18.083 14.5882 18.0544 14.5882 17.9811V16.1967C14.5882 16.1233 14.6039 16.0378 14.6353 15.94C14.6667 15.8748 14.6549 15.83 14.6 15.8056Z" fill="#4C4A4A"/>
</svg>
