<svg width="32" height="32" viewBox="0 0 32 32" fill="none" xmlns="http://www.w3.org/2000/svg">
<rect width="32" height="32" rx="8" fill="#E0E0E0"/>
<path d="M20.1202 17.7998H16.5681C16.3041 17.7998 16.0881 18.0158 16.0881 18.2798V19.1199C16.0881 19.3839 16.3041 19.5998 16.5681 19.5998H20.0961C20.3601 19.5998 20.5761 19.3838 20.5761 19.1199L20.5762 18.2798C20.6002 18.0158 20.3842 17.7998 20.1202 17.7998H20.1202Z" fill="#4C4A4A"/>
<path d="M9.29616 24.904L10.6882 24.2081L12.0802 24.904C12.3442 25.024 12.6321 25.024 12.8722 24.904L14.2642 24.2081L15.6562 24.904C15.9202 25.024 16.2081 25.024 16.4482 24.904L17.8402 24.2081L19.2322 24.904C19.4962 25.024 19.7841 25.024 20.0481 24.904L21.4641 24.2081L22.8561 24.904C23.3122 25.12 23.8401 24.952 24.0561 24.496C24.1281 24.376 24.152 24.232 24.152 24.088V8.8C24.152 7.81596 23.36 7 22.352 7H9.8C8.81596 7 8 7.792 8 8.8V24.112C8 24.6161 8.40798 25 8.91204 25C9.03191 25 9.17605 24.9761 9.29592 24.9041L9.29616 24.904ZM9.80025 8.79996H22.4003V22.648L21.8962 22.4079C21.6322 22.2879 21.3442 22.2879 21.1042 22.4079L19.7122 23.1038L18.2962 22.4079C18.0322 22.2879 17.7443 22.2879 17.5042 22.4079L16.1122 23.1038L14.7202 22.4079C14.4562 22.2879 14.1683 22.2879 13.9282 22.4079L12.5362 23.1038L11.1203 22.4079C10.8562 22.2879 10.5683 22.2879 10.3043 22.4079L9.80021 22.648L9.80025 8.79996Z" fill="#4C4A4A"/>
<path d="M12.0801 12.4001H20.1201C20.3841 12.4001 20.6 12.1841 20.6 11.9201V11.0801C20.6 10.816 20.3841 10.6001 20.1201 10.6001H12.0801C11.816 10.6001 11.6001 10.8161 11.6001 11.0801V11.9201C11.6001 12.1842 11.8161 12.4001 12.0801 12.4001Z" fill="#4C4A4A"/>
<path d="M12.0801 16.0002H20.1201C20.3841 16.0002 20.6 15.7842 20.6 15.5202V14.6802C20.6 14.4161 20.3841 14.2002 20.1201 14.2002H12.0801C11.816 14.2002 11.6001 14.4162 11.6001 14.6802V15.5202C11.6001 15.7843 11.8161 16.0002 12.0801 16.0002Z" fill="#4C4A4A"/>
</svg>
