<svg width="24" height="24" viewBox="0 0 24 24" fill="none" xmlns="http://www.w3.org/2000/svg">
<path fill-rule="evenodd" clip-rule="evenodd" d="M16.475 5.83902H17.5881C18.1469 5.83902 18.6 6.30931 18.6 6.88942V18.1496C18.6 18.7298 18.147 19.2 17.5881 19.2H6.0119C5.45305 19.2 5 18.7298 5 18.1496V6.88942C5 6.30931 5.45305 5.83902 6.0119 5.83902H7.125V5.05039C7.125 4.47028 7.57805 4 8.1369 4H8.17738C8.73624 4 9.18929 4.47028 9.18929 5.05039V5.83902H14.4107V5.05039C14.4107 4.47028 14.8638 4 15.4226 4H15.4631C16.022 4 16.475 4.47028 16.475 5.05039V5.83902ZM6.7 17.5404H16.9V9.01121H6.7V17.5404ZM8.08635 12.8709H9.84698C9.9364 12.8709 10.0089 12.7957 10.0089 12.7029V10.8753C10.0089 10.7825 9.9364 10.7072 9.84698 10.7072H8.08635C7.99694 10.7072 7.92445 10.7825 7.92445 10.8753V12.7029C7.92445 12.7957 7.99694 12.8709 8.08635 12.8709ZM12.6803 12.8709H10.9197C10.8303 12.8709 10.7578 12.7957 10.7578 12.7029V10.8753C10.7578 10.7825 10.8303 10.7072 10.9197 10.7072H12.6803C12.7697 10.7072 12.8422 10.7825 12.8422 10.8753V12.7029C12.8422 12.7957 12.7697 12.8709 12.6803 12.8709ZM13.753 12.8709H15.5136C15.6031 12.8709 15.6756 12.7957 15.6756 12.7029V10.8753C15.6756 10.7825 15.6031 10.7072 15.5136 10.7072H13.753C13.6636 10.7072 13.5911 10.7825 13.5911 10.8753V12.7029C13.5911 12.7957 13.6636 12.8709 13.753 12.8709ZM9.84698 15.812H8.08635C7.99694 15.812 7.92445 15.7368 7.92445 15.644V13.8164C7.92445 13.7236 7.99694 13.6483 8.08635 13.6483H9.84698C9.9364 13.6483 10.0089 13.7236 10.0089 13.8164V15.644C10.0089 15.7368 9.9364 15.812 9.84698 15.812ZM10.9197 15.812H12.6803C12.7697 15.812 12.8422 15.7368 12.8422 15.644V13.8164C12.8422 13.7236 12.7697 13.6483 12.6803 13.6483H10.9197C10.8303 13.6483 10.7578 13.7236 10.7578 13.8164V15.644C10.7578 15.7368 10.8303 15.812 10.9197 15.812ZM15.5136 15.812H13.753C13.6636 15.812 13.5911 15.7368 13.5911 15.644V13.8164C13.5911 13.7236 13.6636 13.6483 13.753 13.6483H15.5136C15.6031 13.6483 15.6756 13.7236 15.6756 13.8164V15.644C15.6756 15.7368 15.6031 15.812 15.5136 15.812Z" fill="#4C4A4A"/>
</svg>
