<svg width="24" height="24" viewBox="0 0 24 24" fill="none" xmlns="http://www.w3.org/2000/svg">
<path fill-rule="evenodd" clip-rule="evenodd" d="M19.1705 18.0074C19.1705 18.558 18.7225 19.0049 18.1705 19.0049H15.8275C15.0255 19.0049 14.2735 18.6927 13.7055 18.1281L4.2915 8.73725C3.9015 8.3482 3.9015 7.71576 4.2915 7.32672L7.6285 3.99793L7.8215 4.76903C8.1555 6.10175 9.3535 7.03445 10.7325 7.03445H14.4045C14.9075 7.03445 15.3345 7.41052 15.3975 7.90829L15.5375 9.02952H14.6355C14.0825 9.02952 13.6355 9.47542 13.6355 10.0271C13.6355 10.5787 14.0825 11.0246 14.6355 11.0246H15.7875L15.9125 12.0221H14.9845C14.4325 12.0221 13.9845 12.468 13.9845 13.0197C13.9845 13.5713 14.4325 14.0172 14.9845 14.0172H16.2875C16.5145 14.5539 16.8825 15.0247 17.3775 15.3539L18.7255 16.2497C19.0045 16.4353 19.1705 16.7455 19.1705 17.0797V18.0074ZM19.8345 14.5898L18.4865 13.694C18.2445 13.5334 18.0855 13.2761 18.0495 12.9878L17.3815 7.6609C17.1945 6.16659 15.9145 5.03937 14.4045 5.03937H10.7325C10.2725 5.03937 9.8735 4.72813 9.7625 4.28423L9.5695 3.51513C9.3925 2.80787 8.8665 2.2702 8.1635 2.07468C7.4585 1.88016 6.7315 2.07069 6.2145 2.58741L2.8775 5.9162C1.7075 7.08332 1.7075 8.98064 2.8775 10.1478L12.2915 19.5386C13.2355 20.4803 14.4915 21 15.8275 21H18.1705C19.8245 21 21.1705 19.6573 21.1705 18.0074V17.0797C21.1705 16.0771 20.6715 15.1464 19.8345 14.5898Z" fill="black"/>
</svg>
