<svg width="32" height="32" viewBox="0 0 32 32" xmlns="http://www.w3.org/2000/svg">
<path fill-rule="evenodd" clip-rule="evenodd" d="M21.3333 20H25.3333C26.0693 20 26.6667 19.4027 26.6667 18.6667V13.3333H5.33334V25.3333C5.33334 26.0693 5.93067 26.6667 6.66667 26.6667H18.6667C19.4027 26.6667 20 26.0693 20 25.3333V21.3333C20 20.596 20.596 20 21.3333 20ZM25.3333 6.66667H6.66667C5.93067 6.66667 5.33334 7.264 5.33334 8V10.6667H26.6667V8C26.6667 7.264 26.0693 6.66667 25.3333 6.66667ZM24 4H25.3333C27.5387 4 29.3333 5.79467 29.3333 8V18.6667C29.3333 20.872 27.5387 22.6667 25.3333 22.6667H22.6667V25.3333C22.6667 27.5387 20.872 29.3333 18.6667 29.3333H6.66667C4.46134 29.3333 2.66667 27.5387 2.66667 25.3333V8C2.66667 5.79467 4.46134 4 6.66667 4H8.00001V2.66667C8.00001 1.92933 8.59601 1.33333 9.33334 1.33333C10.0707 1.33333 10.6667 1.92933 10.6667 2.66667V4H21.3333V2.66667C21.3333 1.92933 21.9293 1.33333 22.6667 1.33333C23.404 1.33333 24 1.92933 24 2.66667V4ZM9.06667 17.3331C9.06667 16.4504 9.784 15.7331 10.6667 15.7331C11.5493 15.7331 12.2667 16.4504 12.2667 17.3331C12.2667 18.2157 11.5493 18.9331 10.6667 18.9331C9.784 18.9331 9.06667 18.2157 9.06667 17.3331ZM14.4 17.3331C14.4 16.4504 15.1173 15.7331 16 15.7331C16.8827 15.7331 17.6 16.4504 17.6 17.3331C17.6 18.2157 16.8827 18.9331 16 18.9331C15.1173 18.9331 14.4 18.2157 14.4 17.3331ZM21.3333 15.7331C20.4507 15.7331 19.7333 16.4504 19.7333 17.3331C19.7333 18.2157 20.4507 18.9331 21.3333 18.9331C22.216 18.9331 22.9333 18.2157 22.9333 17.3331C22.9333 16.4504 22.216 15.7331 21.3333 15.7331ZM9.06667 22.6664C9.06667 21.7837 9.784 21.0664 10.6667 21.0664C11.5493 21.0664 12.2667 21.7837 12.2667 22.6664C12.2667 23.5491 11.5493 24.2664 10.6667 24.2664C9.784 24.2664 9.06667 23.5491 9.06667 22.6664ZM16 21.0664C15.1173 21.0664 14.4 21.7837 14.4 22.6664C14.4 23.5491 15.1173 24.2664 16 24.2664C16.8827 24.2664 17.6 23.5491 17.6 22.6664C17.6 21.7837 16.8827 21.0664 16 21.0664Z"/>
</svg>
