<svg width="16" height="16" viewBox="0 0 16 16" fill="none" xmlns="http://www.w3.org/2000/svg">
<path fill-rule="evenodd" clip-rule="evenodd" d="M4.21651 1L5.116 2.06356L1.89952 4.7433L1 3.67974L4.21651 1ZM11.7835 1.00349L15 3.68323L14.1005 4.74679L10.884 2.06704L11.7835 1.00349ZM1.70002 8.74379C1.70002 5.28896 4.51402 2.48758 7.99651 2.48758C11.479 2.48758 14.3 5.28896 14.3 8.74379C14.3 12.1986 11.479 15 7.99651 15C4.51402 15 1.70002 12.1986 1.70002 8.74379ZM3.10003 8.74382C3.10003 11.4305 5.29453 13.6098 8.00002 13.6098C10.709 13.6098 12.9 11.4305 12.9 8.74379C12.9 6.0571 10.7055 3.87786 8.00002 3.87786C5.2945 3.87786 3.10003 6.05714 3.10003 8.74382ZM7.29999 5.26814H8.34999V8.91759L11.15 10.5651L10.6215 11.4235L7.29999 9.43895V5.26814Z" fill="#828080"/>
</svg>
