<svg width="32" height="32" viewBox="0 0 32 32" fill="none" xmlns="http://www.w3.org/2000/svg">
<rect width="32" height="32" rx="8" fill="#E0E0E0"/>
<path fill-rule="evenodd" clip-rule="evenodd" d="M16 9C14.346 9 13 10.346 13 12C13 13.654 14.346 15 16 15C17.654 15 19 13.654 19 12C19 10.346 17.654 9 16 9ZM20.283 18.475C19.098 17.554 17.613 17 16 17C12.479 17 9.558 19.612 9.071 23H16V23.586V25H8C7.447 25 7 24.553 7 24C7 20.231 9.33 17.002 12.623 15.663C11.632 14.749 11 13.451 11 12C11 9.243 13.243 7 16 7C18.757 7 21 9.243 21 12C21 13.453 20.367 14.751 19.375 15.665C20.224 16.011 21.012 16.475 21.709 17.049L20.283 18.475ZM24.0002 25H22.2422L24.8482 22.395C24.9432 22.916 25.0002 23.451 25.0002 24C25.0002 24.553 24.5532 25 24.0002 25ZM22.25 19.3496L18 23.5896V24.9996H19.41L23.66 20.7596L22.25 19.3496ZM24.3603 17.6407C24.6203 17.6407 24.8803 17.7307 25.0703 17.9297C25.4603 18.3207 25.4603 18.9507 25.0703 19.3397L24.3603 20.0497L22.9503 18.6407L23.6603 17.9297C23.8493 17.7307 24.1103 17.6407 24.3603 17.6407Z" fill="#4C4A4A"/>
</svg>
