<svg width="24" height="24" viewBox="0 0 24 24" fill="none" xmlns="http://www.w3.org/2000/svg">
<path fill-rule="evenodd" clip-rule="evenodd" d="M18.2374 14.3632L17.0144 15.5862V15.0002C17.0144 14.4472 16.5674 14.0002 16.0144 14.0002C15.4624 14.0002 15.0144 14.4472 15.0144 15.0002V20.0002H9.0144V15.0002C9.0144 14.4472 8.5674 14.0002 8.0144 14.0002C7.4624 14.0002 7.0144 14.4472 7.0144 15.0002V15.5862L5.7924 14.3632C5.5004 14.0712 5.4874 13.7342 5.5064 13.5592C5.5384 13.2502 5.7114 12.9722 5.9834 12.7962C9.5634 10.4462 14.4614 10.4432 18.0504 12.7992C18.3184 12.9722 18.4914 13.2502 18.5234 13.5592C18.5424 13.7342 18.5294 14.0712 18.2374 14.3632ZM9.5144 6.50024C9.5144 5.12124 10.6354 4.00024 12.0144 4.00024C13.3934 4.00024 14.5144 5.12124 14.5144 6.50024C14.5144 7.87924 13.3934 9.00024 12.0144 9.00024C10.6354 9.00024 9.5144 7.87924 9.5144 6.50024ZM20.5124 13.3492C20.4164 12.4362 19.9154 11.6242 19.1434 11.1242C17.9814 10.3612 16.7134 9.80324 15.3854 9.44924C16.0804 8.65724 16.5144 7.63324 16.5144 6.50024C16.5144 4.01824 14.4964 2.00024 12.0144 2.00024C9.5334 2.00024 7.5144 4.01824 7.5144 6.50024C7.5144 7.63324 7.9494 8.65724 8.6434 9.44924C7.3164 9.80324 6.0494 10.3602 4.8904 11.1212C4.1144 11.6242 3.6134 12.4362 3.5164 13.3492C3.4224 14.2502 3.7354 15.1352 4.3784 15.7772L7.0144 18.4142V21.0002C7.0144 21.5522 7.4624 22.0002 8.0144 22.0002H16.0144C16.5674 22.0002 17.0144 21.5522 17.0144 21.0002V18.4142L19.6514 15.7772C20.2944 15.1352 20.6074 14.2502 20.5124 13.3492Z" fill="black"/>
</svg>
