<svg width="24" height="24" viewBox="0 0 24 24" fill="none" xmlns="http://www.w3.org/2000/svg">
<path fill-rule="evenodd" clip-rule="evenodd" d="M6 10C6 6.691 8.691 4 12 4C15.309 4 18 6.691 18 10C18 14.438 13.609 18.422 12 19.733C10.391 18.422 6 14.438 6 10ZM11.419 21.813C11.593 21.937 11.796 22 12 22C12.204 22 12.407 21.937 12.581 21.813C12.884 21.598 20 16.44 20 10C20 5.589 16.411 2 12 2C7.589 2 4 5.589 4 10C4 16.44 11.116 21.598 11.419 21.813ZM10 10C10 8.897 10.897 8 12 8C13.103 8 14 8.897 14 10C14 11.103 13.103 12 12 12C10.897 12 10 11.103 10 10ZM8 10C8 12.206 9.794 14 12 14C14.206 14 16 12.206 16 10C16 7.794 14.206 6 12 6C9.794 6 8 7.794 8 10Z" fill="black"/>
</svg>
