<svg width="32" height="32" viewBox="0 0 32 32" fill="none" xmlns="http://www.w3.org/2000/svg">
<rect width="32" height="32" rx="8" fill="#E0E0E0"/>
<path fill-rule="evenodd" clip-rule="evenodd" d="M22.439 20.715C22.414 20.688 22.39 20.656 22.364 20.63C21.457 19.73 20.389 19.06 19.232 18.617C20.013 17.808 20.5 16.711 20.5 15.5C20.5 13.019 18.481 11 16 11C13.518 11 11.5 13.019 11.5 15.5C11.5 16.723 11.994 17.83 12.787 18.643C11.584 19.108 10.49 19.82 9.58 20.752C8.56 19.377 8 17.727 8 16C8 11.589 11.588 8 16 8C20.411 8 24 11.589 24 16C24 17.697 23.457 19.321 22.439 20.715ZM16 18C14.621 18 13.5 16.879 13.5 15.5C13.5 14.121 14.621 13 16 13C17.378 13 18.5 14.121 18.5 15.5C18.5 16.879 17.378 18 16 18ZM11.084 22.309C11.084 22.308 11.085 22.308 11.085 22.308C11.043 22.275 10.999 22.243 10.956 22.211C10.945 22.201 10.935 22.192 10.923 22.182C12.234 20.803 14.075 20 16 20C17.864 20 19.624 20.728 20.953 22.047C20.996 22.09 21.038 22.134 21.08 22.178C21.073 22.184 21.066 22.192 21.058 22.197C20.996 22.244 20.928 22.282 20.866 22.33C20.872 22.33 20.877 22.332 20.882 22.332C19.491 23.41 17.791 24 16 24C14.196 24 12.484 23.403 11.084 22.309ZM16 6C10.486 6 6 10.486 6 16C6 18.608 7.005 21.081 8.777 22.905C8.845 22.987 8.914 23.058 9 23.144C10.876 24.986 13.363 26 16 26C18.636 26 21.123 24.986 23.017 23.126C23.085 23.058 23.154 22.987 23.168 22.966C24.994 21.081 26 18.608 26 16C26 10.486 21.513 6 16 6Z" fill="#4C4A4A"/>
</svg>
