<svg width="80" height="80" viewBox="0 0 80 80" fill="none" xmlns="http://www.w3.org/2000/svg">
<rect width="80" height="80" rx="12" fill="#734AFB" fill-opacity="0.05"/>
<g opacity="0.898182">
<circle cx="18.7069" cy="37.5" r="1.4" fill="#6C63FF"/>
<circle cx="24.3069" cy="48" r="1.4" fill="#6C63FF"/>
<circle cx="19.4069" cy="45.9" r="1.4" fill="#6C63FF"/>
<path d="M20.2127 64.1C20.1899 64.0629 19.6532 63.1701 19.4671 61.3162C19.2965 59.6153 19.4062 56.7484 20.8986 52.7492C23.726 45.173 20.2471 39.0601 20.2115 38.9992L20.3831 38.9C20.3922 38.9154 21.2899 40.474 21.8202 42.9557C22.5209 46.246 22.2657 49.6671 21.0846 52.8181C18.2621 60.3813 20.3605 63.9617 20.382 63.997L20.2127 64.1Z" fill="#CFCCE0"/>
<path fill-rule="evenodd" clip-rule="evenodd" d="M17.4135 37.3358C17.6302 37.8589 18.1407 38.2 18.7069 38.2C19.4797 38.1991 20.106 37.5728 20.1069 36.8C20.1069 36.2338 19.7658 35.7233 19.2427 35.5066C18.7195 35.2899 18.1174 35.4097 17.717 35.8101C17.3166 36.2105 17.1968 36.8126 17.4135 37.3358ZM17.5983 36.3408C17.784 35.8924 18.2216 35.6 18.7069 35.6C19.3693 35.6008 19.9061 36.1376 19.9069 36.8C19.9069 37.2854 19.6145 37.7229 19.1661 37.9087C18.7177 38.0944 18.2016 37.9917 17.8584 37.6485C17.5152 37.3053 17.4125 36.7892 17.5983 36.3408Z" fill="#CFCCE0"/>
<circle cx="22.9069" cy="41.7" r="1.4" fill="#CFCCE0"/>
<path fill-rule="evenodd" clip-rule="evenodd" d="M18.7069 45.2C18.7069 45.9732 19.3337 46.6 20.1069 46.6C20.8797 46.5991 21.506 45.9728 21.5069 45.2C21.5069 44.4268 20.8801 43.8 20.1069 43.8C19.3337 43.8 18.7069 44.4268 18.7069 45.2ZM18.9069 45.2C18.9069 44.5373 19.4442 44 20.1069 44C20.7693 44.0007 21.3062 44.5376 21.3069 45.2C21.3069 45.8627 20.7696 46.4 20.1069 46.4C19.4442 46.4 18.9069 45.8627 18.9069 45.2Z" fill="#CFCCE0"/>
<path fill-rule="evenodd" clip-rule="evenodd" d="M22.3135 47.8358C22.5302 48.3589 23.0407 48.7 23.6069 48.7C24.3797 48.6991 25.006 48.0729 25.0069 47.3C25.0069 46.7338 24.6658 46.2233 24.1427 46.0066C23.6195 45.7899 23.0174 45.9097 22.617 46.3101C22.2166 46.7105 22.0968 47.3126 22.3135 47.8358ZM22.4069 47.3C22.4069 46.6373 22.9442 46.1 23.6069 46.1C24.2693 46.1008 24.8062 46.6376 24.8069 47.3C24.8069 47.9628 24.2696 48.5 23.6069 48.5C22.9442 48.5 22.4069 47.9628 22.4069 47.3Z" fill="#CFCCE0"/>
<circle cx="19.4069" cy="51.5" r="1.4" fill="#CFCCE0"/>
<path d="M21.0143 64.1C21.0143 64.1 19.718 60.9 23.6069 58.5L21.0143 64.1Z" fill="#CFCCE0"/>
<path d="M19.4069 64.1C19.4069 64.1 18.8462 60.5699 14.5069 60.6002L19.4069 64.1Z" fill="#CFCCE0"/>
<path d="M65.6486 65.5H43.935C43.935 65.5 43.4948 58.8341 46.099 58.7584C48.7032 58.6826 48.4097 61.7126 51.6741 57.5464C54.9385 53.3802 58.8997 53.6074 59.4132 56.0693C59.9267 58.5311 58.4229 60.5006 61.1738 59.8946C63.9247 59.2886 67.8859 60.8793 65.6486 65.5Z" fill="#6C63FF"/>
<path d="M54.4832 65.5L54.4069 65.497C54.5848 61.1241 55.5116 58.3144 56.2576 56.7275C57.0677 55.0044 57.8483 54.3069 57.8561 54.3L57.9069 54.3564C57.8992 54.3632 57.1277 55.0538 56.3241 56.7653C55.5821 58.3455 54.6605 61.1436 54.4832 65.5Z" fill="#F2F2F2"/>
<path d="M62.1746 64.8L62.1069 64.779C62.9216 61.7997 64.8402 59.9187 64.8595 59.9L64.9069 59.9556C64.8878 59.9741 62.9835 61.8418 62.1746 64.8Z" fill="#F2F2F2"/>
<path d="M47.32 64.8L47.244 64.79C47.5448 62.7437 47.0014 61.1559 46.4926 60.1844C45.9418 59.1324 45.3132 58.5579 45.3069 58.5522L45.36 58.5C45.3663 58.5058 46.0046 59.0891 46.5614 60.1524C47.0749 61.133 47.6234 62.7354 47.32 64.8Z" fill="#F2F2F2"/>
<path fill-rule="evenodd" clip-rule="evenodd" d="M41.151 65.5H68.2531L68.2803 65.4442C69.6301 62.6762 69.0779 60.9883 68.377 60.0597C67.0741 58.3337 64.4783 57.9855 62.618 58.3924C61.7034 58.5926 61.1477 58.5699 60.8693 58.3213C60.5357 58.0232 60.5826 57.3656 60.6419 56.533V56.533L60.6419 56.5329C60.6973 55.7548 60.7662 54.7864 60.5497 53.7558C60.3211 52.6674 59.5398 51.8842 58.4063 51.6071C56.6519 51.1783 53.6001 51.9494 50.7716 55.5338C48.1607 58.8425 47.4426 58.4057 46.3556 57.7446L46.3556 57.7445L46.3505 57.7415C45.7747 57.3913 45.0605 56.9569 43.926 56.99C43.3892 57.0055 42.9192 57.2368 42.5289 57.6773C40.7834 59.6482 41.1291 65.1717 41.1447 65.4059L41.151 65.5ZM68.1312 65.298H41.3359C41.2975 64.5513 41.106 59.5844 42.6748 57.8131C43.0276 57.4148 43.4504 57.2058 43.9316 57.1919C45.0084 57.1606 45.6713 57.5632 46.2551 57.9183C47.388 58.6074 48.2068 59.1052 50.9248 55.6608C53.6957 52.1495 56.6622 51.3881 58.3606 51.8036C59.4174 52.0619 60.1451 52.7889 60.3572 53.7983C60.5677 54.8007 60.4999 55.7531 60.4454 56.5183L60.4454 56.5185C60.3821 57.4073 60.3321 58.1093 60.7398 58.4735C61.0733 58.7715 61.6654 58.8074 62.659 58.5899C64.5184 58.1832 67.026 58.6 68.2212 60.1833C69.1684 61.4381 69.137 63.2057 68.1312 65.298Z" fill="#CFCCE0"/>
<path d="M41.0673 18.2621C41.0673 18.2621 39.588 17.7363 38.6371 19.8398C37.6861 21.9433 36.2069 24.2571 36.2069 24.2571L37.0522 24.4675C37.0522 24.4675 37.2635 22.995 37.7918 22.7847L37.5805 24.6778C37.5805 24.6778 43.9201 26.8865 46.7729 24.4675L46.6673 23.7313C46.6673 23.7313 47.0899 23.8364 47.0899 24.4675L47.4069 24.152C47.4069 24.152 47.0899 23.5209 46.139 22.6795C45.5148 22.1272 45.3003 21.0766 45.2266 20.4197C45.1714 19.8712 44.9509 19.3521 44.5941 18.9305C43.9622 18.2014 42.8107 17.4266 41.0673 18.2621Z" fill="#2F2E41"/>
<path d="M38.9175 26.5389L37.3781 24.5893L36.2236 20.5928L40.6493 15.8165C40.6493 15.8165 41.6114 12.1125 40.7455 12.3074C39.8796 12.5024 39.6872 15.2317 39.6872 15.2317L34.1069 19.6181C34.1069 19.6181 34.6842 25.759 36.3198 27.9035L37.5705 31.9L38.9175 26.5389Z" fill="#FFB9B9"/>
<path d="M43.2963 26.5389L44.8357 24.5893L45.9902 20.5928L41.5645 15.8165C41.5645 15.8165 40.6024 12.1125 41.4683 12.3074C42.3342 12.5024 42.5266 15.2317 42.5266 15.2317L48.1069 19.6181C48.1069 19.6181 47.5296 25.759 45.894 27.9035L44.6433 31.9L43.2963 26.5389Z" fill="#FFB9B9"/>
<circle cx="41.4569" cy="22.45" r="2.45" fill="#FFB9B9"/>
<path d="M40.0233 23.5C40.0233 23.5 40.1253 25.541 39.5135 26.2213C38.9017 26.9017 38.2899 30.4005 41.2469 30.4977C44.2038 30.5949 43.8979 27.582 43.8979 27.582L43.2861 25.9298C43.2861 25.9298 42.3685 24.6663 42.6744 23.5L40.0233 23.5Z" fill="#FFB9B9"/>
<path d="M37.2069 46.6L39.3569 47.2594C39.3569 47.2594 41.1069 46.1942 41.1069 47.2087C41.1069 48.2232 40.5069 49.542 40.7069 50.4551C40.9069 51.3681 41.3069 53.6 40.7069 53.6C40.1069 53.6 38.9069 49.6435 38.9069 49.6435L36.9069 48.5275L37.2069 46.6Z" fill="#FFB9B9"/>
<path d="M40.1397 60.6L39.3241 63.6755C39.3241 63.6755 38.6104 64.5684 39.3241 64.9652C39.659 65.1514 39.904 65.5343 40.0699 65.8882C40.366 66.5411 41.0503 66.944 41.7821 66.8962C42.1301 66.8681 42.4232 66.7342 42.4945 66.3863C42.5344 66.1656 42.4771 65.9387 42.3366 65.7611C41.5846 64.7722 41.4141 64.1219 41.4141 64.1219L41.7199 60.6496L40.1397 60.6Z" fill="#FFB9B9"/>
<path d="M38.4152 22.8C38.4152 22.8 39.2818 21.6333 40.04 21.4212C40.7982 21.2091 40.9065 20.1485 40.9065 20.1485C40.9065 20.1485 42.8562 22.2697 44.0477 22.3758C45.2392 22.4818 44.156 19.8303 44.156 19.8303L41.9897 19.3L39.9317 19.5121L38.3069 20.5727L38.4152 22.8Z" fill="#2F2E41"/>
<path d="M36.4578 39.2567L36.0576 40.051C36.0576 40.051 26.3535 43.1291 27.1538 46.0087C27.9542 48.8882 32.4561 48.0939 32.4561 48.0939L37.4582 48.9875L37.9584 46.803L34.4569 45.9094L40.4595 43.7249L40.6596 53.8529L39.8593 61.1014L41.8601 61.3C41.8601 61.3 44.0611 54.6473 43.7609 51.867C43.7609 51.867 47.4625 40.5475 45.3616 38.8595C43.2607 37.1715 36.4578 39.2567 36.4578 39.2567Z" fill="#2F2E41"/>
<path d="M41.5741 28.2739L39.9991 26.423L38.9323 26.8985L37.8219 30.3338C37.8219 30.3338 36.9135 32.0023 38.0238 33.7691C38.0238 33.7691 38.2257 34.9469 37.9229 35.2413C37.6201 35.5358 37.5191 37.4007 37.5191 37.4007L36.2069 39.8545C36.2069 39.8545 43.6765 41.1304 45.8972 39.3637C45.8972 39.3637 44.7319 35.1862 45.4385 33.9103C46.1451 32.6343 46.246 30.6782 45.4385 29.7949C44.631 28.9115 43.7774 26.604 43.7774 26.604L43.2886 26.3L41.5741 28.2739Z" fill="#CFCCE0"/>
<path d="M47.4069 13.3044H46.4025V12.3H46.3113V13.3044H45.3069V13.3956H46.3113V14.4H46.4025V13.3956H47.4069V13.3044V13.3044Z" fill="#CFCCE0"/>
<path d="M38.3069 11.2044H37.3025V10.2H37.2113V11.2044H36.2069V11.2956H37.2113V12.3H37.3025V11.2956H38.3069V11.2044V11.2044Z" fill="#CFCCE0"/>
<path d="M42.5069 7.00437H41.5026V6H41.4113V7.00437H40.4069V7.09563H41.4113V8.1H41.5026V7.09563H42.5069V7.00437V7.00437Z" fill="#CFCCE0"/>
</g>
</svg>
