<svg width="80" height="80" viewBox="0 0 80 80" fill="none" xmlns="http://www.w3.org/2000/svg">
<rect width="80" height="80" rx="16" fill="#E0E0E0"/>
<path fill-rule="evenodd" clip-rule="evenodd" d="M35.791 32.1699C36.961 33.3399 37.551 34.8799 37.551 36.4099C37.551 37.9399 36.961 39.4799 35.791 40.6499L44.271 49.1399C45.451 47.9599 46.981 47.3799 48.511 47.3799C50.051 47.3799 51.591 47.9599 52.761 49.1399C54.881 51.2599 56.671 52.7999 58.181 53.9599C59.691 55.1199 60.931 55.9199 61.961 56.5399C62.521 56.8799 63.181 57.0099 63.821 56.9399C64.201 55.5499 63.981 54.0299 63.111 52.7799L59.611 47.7199C59.291 47.2499 59.071 46.7299 58.971 46.1699L55.881 29.4899C55.711 28.5699 54.931 27.8899 54.001 27.8499L43.151 27.3799C41.011 27.2899 39.321 25.5299 39.321 23.3899V18.7299C38.151 17.5599 36.251 17.5599 35.081 18.7299L28.721 25.0899L35.791 32.1699Z" fill="black"/>
<path fill-rule="evenodd" clip-rule="evenodd" d="M53.189 33.125H56.189C57.018 33.125 57.689 32.454 57.689 31.625C57.689 30.796 57.018 30.125 56.189 30.125H53.189C52.36 30.125 51.689 30.796 51.689 31.625C51.689 32.454 52.36 33.125 53.189 33.125" fill="#666666"/>
<path fill-rule="evenodd" clip-rule="evenodd" d="M35.7881 32.1655L28.7171 25.0945L27.3031 26.5085C25.7411 28.0705 25.7411 30.6035 27.3031 32.1655L35.7881 40.6505C38.1311 38.3075 38.1311 34.5085 35.7881 32.1655" fill="#A6A6A6"/>
<path fill-rule="evenodd" clip-rule="evenodd" d="M62.5874 59.106L61.3714 60.322C60.4024 61.291 58.8894 61.489 57.7154 60.782C55.6644 59.538 52.7584 57.621 47.1014 51.964L44.2734 49.136C46.6164 46.793 50.4154 46.793 52.7584 49.136C57.0014 53.378 59.9074 55.295 61.9584 56.54C62.5454 56.886 63.2164 57.02 63.8674 56.936C63.6334 57.734 63.2094 58.484 62.5874 59.106" fill="#A6A6A6"/>
<path fill-rule="evenodd" clip-rule="evenodd" d="M54.3032 39.125H57.3032C58.1322 39.125 58.8032 38.454 58.8032 37.625C58.8032 36.796 58.1322 36.125 57.3032 36.125H54.3032C53.4742 36.125 52.8032 36.796 52.8032 37.625C52.8032 38.454 53.4742 39.125 54.3032 39.125" fill="#666666"/>
<path fill-rule="evenodd" clip-rule="evenodd" d="M16.3032 39.125H23.3032C24.1322 39.125 24.8032 38.454 24.8032 37.625C24.8032 36.796 24.1322 36.125 23.3032 36.125H16.3032C15.4742 36.125 14.8032 36.796 14.8032 37.625C14.8032 38.454 15.4742 39.125 16.3032 39.125" fill="#A6A6A6"/>
<path fill-rule="evenodd" clip-rule="evenodd" d="M23.3032 46.125H30.3032C31.1322 46.125 31.8032 45.454 31.8032 44.625C31.8032 43.796 31.1322 43.125 30.3032 43.125H23.3032C22.4742 43.125 21.8032 43.796 21.8032 44.625C21.8032 45.454 22.4742 46.125 23.3032 46.125" fill="#A6A6A6"/>
<path fill-rule="evenodd" clip-rule="evenodd" d="M30.3032 53.125H37.3032C38.1322 53.125 38.8032 52.454 38.8032 51.625C38.8032 50.796 38.1322 50.125 37.3032 50.125H30.3032C29.4742 50.125 28.8032 50.796 28.8032 51.625C28.8032 52.454 29.4742 53.125 30.3032 53.125" fill="#A6A6A6"/>
<path fill-rule="evenodd" clip-rule="evenodd" d="M55.4121 45.125H58.4121C59.2411 45.125 59.9121 44.454 59.9121 43.625C59.9121 42.796 59.2411 42.125 58.4121 42.125H55.4121C54.5831 42.125 53.9121 42.796 53.9121 43.625C53.9121 44.454 54.5831 45.125 55.4121 45.125" fill="#666666"/>
<path fill-rule="evenodd" clip-rule="evenodd" d="M53.9971 27.8535L47.6461 27.5775C48.1671 25.3655 50.1431 23.7175 52.5151 23.7175H53.1651C53.6271 23.7175 54.0021 24.0915 54.0021 24.5535V27.8545C54.0001 27.8545 53.9981 27.8535 53.9971 27.8535" fill="#666666"/>
</svg>
