<svg width="24" height="24" viewBox="0 0 24 24" fill="none" xmlns="http://www.w3.org/2000/svg">
<path fill-rule="evenodd" clip-rule="evenodd" d="M5.93932 18H18.0782C18.602 18 19.0175 17.5549 18.9994 17.0131V16.8389C18.9994 16.568 18.9091 16.3164 18.7285 16.1229L17.464 14.7876V10.4916C17.464 7.87912 15.9286 5.6924 13.6345 4.91833V4.76352C13.6345 3.48632 12.2797 2.46068 11.0514 3.31215C10.5998 3.62178 10.3469 4.18297 10.3469 4.76352V4.91833C10.3469 4.93768 10.3469 4.95704 10.3288 4.95704C8.05278 5.7311 6.53542 7.91783 6.53542 10.5109V14.7876L5.27096 16.1035C5.09032 16.2971 5 16.5486 5 16.8196V16.9937C5 17.5549 5.41547 18 5.93932 18ZM10 19.5048C10 20.1405 10.5283 20.7389 11.3585 20.9258C12.717 21.2437 13.9748 20.4958 14 19.5235V19H10.0252C10 19 10 19.0187 10 19.0187V19.5048Z" fill="black"/>
</svg>
