<svg width="32" height="32" viewBox="0 0 32 32" fill="none" xmlns="http://www.w3.org/2000/svg">
<rect width="32" height="32" rx="8" fill="#E0E0E0"/>
<path fill-rule="evenodd" clip-rule="evenodd" d="M22 23C22.552 23 23 22.552 23 22V10C23 9.448 22.552 9 22 9H10C9.448 9 9 9.448 9 10V11C9.553 11 10 11.447 10 12C10 12.553 9.553 13 9 13V19C9.553 19 10 19.447 10 20C10 20.553 9.553 21 9 21V22C9 22.552 9.448 23 10 23H22ZM10 7H22C23.654 7 25 8.346 25 10V22C25 23.654 23.654 25 22 25H10C8.346 25 7 23.654 7 22V21C6.447 21 6 20.553 6 20C6 19.447 6.447 19 7 19V13C6.447 13 6 12.553 6 12C6 11.447 6.447 11 7 11V10C7 8.346 8.346 7 10 7ZM14.802 16.0002C14.802 16.6612 15.339 17.1982 16 17.1982C16.661 17.1982 17.198 16.6612 17.198 16.0002C17.198 15.3392 16.661 14.8022 16 14.8022C15.339 14.8022 14.802 15.3392 14.802 16.0002ZM18.815 15.0002H20C20.553 15.0002 21 15.4472 21 16.0002C21 16.5522 20.553 17.0002 20 17.0002H18.815C18.514 17.8472 17.848 18.5132 17 18.8152V20.0002C17 20.5522 16.553 21.0002 16 21.0002C15.447 21.0002 15 20.5522 15 20.0002V18.8152C14.152 18.5132 13.486 17.8472 13.185 17.0002H12C11.447 17.0002 11 16.5522 11 16.0002C11 15.4472 11.447 15.0002 12 15.0002H13.185C13.486 14.1522 14.152 13.4862 15 13.1842V12.0002C15 11.4472 15.447 11.0002 16 11.0002C16.553 11.0002 17 11.4472 17 12.0002V13.1842C17.848 13.4862 18.514 14.1522 18.815 15.0002Z" fill="#4C4A4A"/>
</svg>
