<svg width="32" height="32" viewBox="0 0 32 32" xmlns="http://www.w3.org/2000/svg">
<path fill-rule="evenodd" clip-rule="evenodd" d="M25.3333 14.4387V9.33333H26.6667C27.4027 9.33333 28 9.93067 28 10.6667C28 12.4053 26.8853 13.888 25.3333 14.4387M16 21.3333C12.324 21.3333 9.33333 18.3427 9.33333 14.6667V6.66667C9.33333 5.93067 9.93066 5.33333 10.6667 5.33333H21.3333C22.0693 5.33333 22.6667 5.93067 22.6667 6.66667V14.6667C22.6667 18.3427 19.676 21.3333 16 21.3333M3.99999 10.6667C3.99999 9.93067 4.59733 9.33333 5.33333 9.33333H6.66666V14.4387C5.11466 13.888 3.99999 12.4053 3.99999 10.6667M30.6667 10.6667C30.6667 8.46133 28.872 6.66667 26.6667 6.66667H25.3333C25.3333 4.46133 23.5387 2.66667 21.3333 2.66667H10.6667C8.46133 2.66667 6.66666 4.46133 6.66666 6.66667H5.33333C3.12799 6.66667 1.33333 8.46133 1.33333 10.6667C1.33333 14.012 3.81866 16.7627 7.03466 17.236C8.03466 20.7187 11.0107 23.3667 14.6667 23.8933V26.6667H12C11.2627 26.6667 10.6667 27.2627 10.6667 28C10.6667 28.7373 11.2627 29.3333 12 29.3333H20C20.7373 29.3333 21.3333 28.7373 21.3333 28C21.3333 27.2627 20.7373 26.6667 20 26.6667H17.3333V23.8933C20.9893 23.3667 23.9653 20.7187 24.9653 17.236C28.1813 16.7627 30.6667 14.012 30.6667 10.6667"/>
</svg>
