<svg width="24" height="24" viewBox="0 0 24 24" fill="none" xmlns="http://www.w3.org/2000/svg">
<path d="M14.8864 3H9.28C6.38083 3 4 5.36157 4 8.28V12.888C4 13.3104 4.34553 13.6559 4.76793 13.6559C5.19033 13.6559 5.53586 13.3104 5.53586 12.888L5.536 8.28C5.536 6.22553 7.20636 4.5552 9.2608 4.5552H14.848C16.9408 4.5552 18.6112 6.22557 18.6112 8.28V12.312C18.6112 14.3665 16.9408 16.0368 14.8864 16.0368L7.9552 16.0367L10.2785 13.7134C10.5857 13.4062 10.5857 12.9262 10.2785 12.6189C9.97124 12.3117 9.49123 12.3117 9.184 12.6189L5.536 16.2669C5.22877 16.5742 5.22877 17.0542 5.536 17.3614L9.184 21.0094C9.33762 21.163 9.52953 21.2398 9.74073 21.2398C9.93278 21.2398 10.144 21.163 10.2975 21.0094C10.6047 20.7022 10.6047 20.2222 10.2975 19.9149L7.9552 17.5921H14.8864C17.8048 17.5921 20.1664 15.2305 20.1664 12.3121V8.28007C20.1664 5.36164 17.7856 3.00007 14.8864 3.00007L14.8864 3Z" fill="black"/>
</svg>
