<svg width="17" height="19" viewBox="0 0 17 19" fill="none" xmlns="http://www.w3.org/2000/svg">
<path d="M10.8864 0H5.28C2.38083 0 0 2.36157 0 5.28V9.888C0 10.3104 0.345532 10.6559 0.767932 10.6559C1.19033 10.6559 1.53586 10.3104 1.53586 9.888L1.536 5.28C1.536 3.22553 3.20636 1.5552 5.2608 1.5552H10.848C12.9408 1.5552 14.6112 3.22557 14.6112 5.28V9.312C14.6112 11.3665 12.9408 13.0368 10.8864 13.0368L3.9552 13.0367L6.27847 10.7134C6.5857 10.4062 6.5857 9.92616 6.27847 9.61893C5.97124 9.3117 5.49123 9.3117 5.184 9.61893L1.536 13.2669C1.22877 13.5742 1.22877 14.0542 1.536 14.3614L5.184 18.0094C5.33761 18.163 5.52953 18.2398 5.74073 18.2398C5.93278 18.2398 6.144 18.163 6.29746 18.0094C6.60469 17.7022 6.60469 17.2222 6.29746 16.9149L3.9552 14.5921H10.8864C13.8048 14.5921 16.1664 12.2305 16.1664 9.31207V5.28007C16.1664 2.36164 13.7856 7.17708e-05 10.8864 7.17708e-05L10.8864 0Z" fill="black"/>
</svg>
