<svg width="48" height="48" viewBox="0 0 48 48" fill="none" xmlns="http://www.w3.org/2000/svg">
<path fill-rule="evenodd" clip-rule="evenodd" d="M40.9709 22.5857C40.5806 22.1954 39.947 22.1954 39.5567 22.5857L32.4856 29.6568L18.3435 15.5147L25.4145 8.44361C25.8049 8.05329 25.8049 7.41972 25.4145 7.0294L24.0003 5.61518C23.61 5.22486 22.9764 5.22486 22.5861 5.61518L5.61554 22.5857C5.22522 22.9761 5.22522 23.6096 5.61554 24L7.02975 25.4142C7.42008 25.8045 8.05364 25.8045 8.44397 25.4142L15.515 18.3431L29.6572 32.4852L22.5861 39.5563C22.1958 39.9466 22.1958 40.5802 22.5861 40.9705L24.0003 42.3847C24.3906 42.7751 25.0242 42.7751 25.4145 42.3847L42.3851 25.4142C42.7754 25.0239 42.7754 24.3903 42.3851 24L40.9709 22.5857ZM38.1425 35.3137L35.314 38.1421L36.0211 38.8492C36.4115 39.2395 37.045 39.2395 37.4353 38.8492L38.8496 37.435C39.2399 37.0447 39.2399 36.4111 38.8496 36.0208L38.1425 35.3137ZM11.9795 9.15072C11.5892 8.76039 10.9556 8.76039 10.5653 9.15072L9.15107 10.5649C8.76075 10.9553 8.76075 11.5888 9.15107 11.9791L9.85818 12.6863L12.6866 9.85782L11.9795 9.15072Z" fill="black"/>
<path opacity="0.6" d="M40.2637 27.5355L42.3851 29.6568C42.7756 30.0473 42.7756 30.6805 42.3851 31.071L31.0713 42.3847C30.6808 42.7753 30.0477 42.7753 29.6571 42.3847L27.5358 40.2634C27.1453 39.8729 27.1453 39.2397 27.5358 38.8492L38.8495 27.5355C39.24 27.145 39.8732 27.145 40.2637 27.5355Z" fill="black"/>
<path opacity="0.6" d="M7.73687 20.4644L5.61555 18.3431C5.22503 17.9526 5.22503 17.3194 5.61555 16.9289L16.9293 5.61519C17.3198 5.22466 17.953 5.22466 18.3435 5.61519L20.4648 7.73651C20.8553 8.12703 20.8553 8.7602 20.4648 9.15072L9.15109 20.4644C8.76056 20.855 8.1274 20.855 7.73687 20.4644Z" fill="black"/>
</svg>
