<svg width="40" height="37" viewBox="0 0 40 37" fill="none" xmlns="http://www.w3.org/2000/svg">
<path fill-rule="evenodd" clip-rule="evenodd" d="M20.0001 29C23.4411 29 26.3341 29.857 28.6731 31.297C30.1231 32.188 31.0831 33.111 31.6001 33.8C32.2631 34.684 32.0841 35.937 31.2001 36.6C30.3601 37.23 29.1871 37.1 28.5041 36.327L28.3521 36.142L28.1961 35.975L28.0361 35.818C27.6481 35.445 27.1621 35.064 26.5761 34.703C24.8551 33.643 22.6851 33 20.0001 33C17.3161 33 15.1461 33.643 13.4231 34.703C12.8381 35.063 12.3521 35.445 11.9631 35.818L11.8031 35.975L11.6481 36.142L11.6001 36.2C10.9371 37.084 9.68409 37.263 8.80009 36.6C7.91609 35.937 7.73709 34.684 8.40009 33.8C8.91709 33.11 9.87809 32.188 11.3271 31.297C13.6671 29.857 16.5591 29 20.0001 29ZM20.0001 15C23.3141 15 26.0001 17.686 26.0001 21C26.0001 24.314 23.3141 27 20.0001 27C16.6861 27 14.0001 24.314 14.0001 21C14.0001 17.686 16.6861 15 20.0001 15ZM20.0001 19C18.8951 19 18.0001 19.895 18.0001 21C18.0001 22.105 18.8951 23 20.0001 23C21.1051 23 22.0001 22.105 22.0001 21C22.0001 19.895 21.1051 19 20.0001 19Z" fill="black"/>
<path opacity="0.6" fill-rule="evenodd" clip-rule="evenodd" d="M10.0001 14C11.1051 14 12.0001 14.895 12.0001 16C12.0001 17.105 11.1051 18 10.0001 18C8.01115 18 6.40815 18.594 5.12015 19.585C4.67315 19.929 4.30015 20.295 3.99915 20.655L3.85715 20.831L3.71515 21.029C3.14715 21.976 1.91815 22.283 0.971147 21.715C0.0241465 21.147 -0.282854 19.918 0.285146 18.971C0.705146 18.271 1.48715 17.333 2.68115 16.415C4.64015 14.906 7.08915 14 10.0001 14ZM30.0001 14C32.9111 14 35.3581 14.906 37.3201 16.415C38.5131 17.333 39.2951 18.271 39.7151 18.971C40.2831 19.918 39.9761 21.147 39.0291 21.715C38.1291 22.255 36.9751 22.005 36.3751 21.166L36.2371 20.958L36.1431 20.831L36.0011 20.655C35.7011 20.295 35.3271 19.929 34.8811 19.585C33.5901 18.594 31.9891 18 30.0001 18C28.8951 18 28.0001 17.105 28.0001 16C28.0001 14.895 28.8951 14 30.0001 14ZM10.0001 0C13.3141 0 16.0001 2.686 16.0001 6C16.0001 9.314 13.3141 12 10.0001 12C6.68615 12 4.00015 9.314 4.00015 6C4.00015 2.686 6.68615 0 10.0001 0ZM30.0001 0C33.3141 0 36.0001 2.686 36.0001 6C36.0001 9.314 33.3141 12 30.0001 12C26.6861 12 24.0001 9.314 24.0001 6C24.0001 2.686 26.6861 0 30.0001 0ZM10.0001 4C8.89515 4 8.00015 4.895 8.00015 6C8.00015 7.105 8.89515 8 10.0001 8C11.1051 8 12.0001 7.105 12.0001 6C12.0001 4.895 11.1051 4 10.0001 4ZM30.0001 4C28.8951 4 28.0001 4.895 28.0001 6C28.0001 7.105 28.8951 8 30.0001 8C31.1051 8 32.0001 7.105 32.0001 6C32.0001 4.895 31.1051 4 30.0001 4Z" fill="black"/>
</svg>
