<svg width="24" height="24" viewBox="0 0 24 24" fill="none" xmlns="http://www.w3.org/2000/svg">
<path fill-rule="evenodd" clip-rule="evenodd" d="M16 15H19C19.552 15 20 14.552 20 14V10H4V19C4 19.552 4.448 20 5 20H14C14.552 20 15 19.552 15 19V16C15 15.447 15.447 15 16 15ZM19 5H5C4.448 5 4 5.448 4 6V8H20V6C20 5.448 19.552 5 19 5ZM18 3H19C20.654 3 22 4.346 22 6V14C22 15.654 20.654 17 19 17H17V19C17 20.654 15.654 22 14 22H5C3.346 22 2 20.654 2 19V6C2 4.346 3.346 3 5 3H6V2C6 1.447 6.447 1 7 1C7.553 1 8 1.447 8 2V3H16V2C16 1.447 16.447 1 17 1C17.553 1 18 1.447 18 2V3ZM6.8 12.9998C6.8 12.3378 7.338 11.7998 8 11.7998C8.662 11.7998 9.2 12.3378 9.2 12.9998C9.2 13.6618 8.662 14.1998 8 14.1998C7.338 14.1998 6.8 13.6618 6.8 12.9998ZM10.8 12.9998C10.8 12.3378 11.338 11.7998 12 11.7998C12.662 11.7998 13.2 12.3378 13.2 12.9998C13.2 13.6618 12.662 14.1998 12 14.1998C11.338 14.1998 10.8 13.6618 10.8 12.9998ZM16 11.7998C15.338 11.7998 14.8 12.3378 14.8 12.9998C14.8 13.6618 15.338 14.1998 16 14.1998C16.662 14.1998 17.2 13.6618 17.2 12.9998C17.2 12.3378 16.662 11.7998 16 11.7998ZM6.8 16.9998C6.8 16.3378 7.338 15.7998 8 15.7998C8.662 15.7998 9.2 16.3378 9.2 16.9998C9.2 17.6618 8.662 18.1998 8 18.1998C7.338 18.1998 6.8 17.6618 6.8 16.9998ZM12 15.7998C11.338 15.7998 10.8 16.3378 10.8 16.9998C10.8 17.6618 11.338 18.1998 12 18.1998C12.662 18.1998 13.2 17.6618 13.2 16.9998C13.2 16.3378 12.662 15.7998 12 15.7998Z" fill="black"/>
</svg>
