<svg width="32" height="32" viewBox="0 0 32 32" fill="none" xmlns="http://www.w3.org/2000/svg">
<rect width="32" height="32" rx="8" fill="#E0E0E0"/>
<path fill-rule="evenodd" clip-rule="evenodd" d="M23.0604 10H22.0468V11.8228H23.0604C23.6747 11.8228 24.1759 12.322 24.1759 12.9362V22.8876L21.6783 20.3939C21.507 20.2228 21.2754 20.1266 21.0331 20.1266H12.9239C12.3091 20.1266 11.8089 19.6263 11.8089 19.0122V17.9995H11.3162L10 19.3149C10.152 20.7929 11.4054 21.9494 12.9239 21.9494H20.6555L24.443 25.7327C24.6174 25.9068 24.851 26 25.0877 26C25.2053 26 25.3239 25.9772 25.4369 25.9306C25.7775 25.7894 26 25.4572 26 25.0881V12.9362C26 11.3175 24.6817 10 23.0604 10Z" fill="#4C4A4A"/>
<path fill-rule="evenodd" clip-rule="evenodd" d="M9 9C8.449 9 8 9.449 8 10V19.586L10.293 17.293C10.4805 17.1055 10.735 17 11 17H19C19.5515 17 20 16.552 20 16V10C20 9.449 19.5515 9 19 9H9ZM7 23C6.871 23 6.741 22.9755 6.617 22.924C6.244 22.7695 6 22.4045 6 22V10C6 8.3455 7.3455 7 9 7H19C20.654 7 22 8.3455 22 10V16C22 17.6545 20.654 19 19 19H11.414L7.707 22.707C7.5155 22.8985 7.2605 23 7 23Z" fill="#4C4A4A"/>
</svg>
