<svg width="32" height="32" viewBox="0 0 32 32" fill="none" xmlns="http://www.w3.org/2000/svg">
<rect width="32" height="32" rx="8" fill="#E0E0E0"/>
<path d="M8.5 26H23.5C24.1631 26 24.7989 25.7367 25.2678 25.2678C25.7367 24.7989 26 24.1631 26 23.5V12.5436C26.0007 12.1554 25.9106 11.7724 25.7375 11.4249L23.7125 7.38115C23.505 6.96633 23.1861 6.61732 22.7913 6.3734C22.3968 6.12948 21.942 6.00022 21.4782 6H10.5218C10.0572 5.99957 9.60189 6.12861 9.20669 6.37275C8.81149 6.61667 8.49213 6.96588 8.28421 7.38111L6.26245 11.4279C6.0898 11.7745 5.99978 12.1565 6 12.5436V23.4999C6 24.163 6.26333 24.7989 6.7322 25.2678C7.20107 25.7367 7.83694 26 8.50005 26L8.5 26ZM17.25 8.50017H21.4782L22.7281 11.0002L17.25 11V8.50017ZM10.5218 8.50017H14.75V11.0002L9.27188 11L10.5218 8.50017ZM8.5 13.5H23.5V23.4999H8.5V13.5Z" fill="#4C4A4A"/>
</svg>
