<svg width="32" height="32" viewBox="0 0 32 32" xmlns="http://www.w3.org/2000/svg">
<path fill-rule="evenodd" clip-rule="evenodd" d="M23.5122 8.64528C24.7987 8.64528 25.8422 7.60596 25.8422 6.32159C25.8422 5.03933 24.7987 4 23.5122 4C22.2278 4 21.1843 5.03933 21.1843 6.32159C21.1843 7.60596 22.2278 8.64528 23.5122 8.64528ZM11.1324 12.7815L14.5017 9.42055L15.6361 10.236L17.1529 8.72344C17.4064 8.46995 17.7021 8.27561 18.0317 8.1214L15.1629 6.13992C14.5461 5.73221 13.7286 5.81248 13.2047 6.33426L8.93965 10.593C8.33338 11.1971 8.33338 12.1773 8.93965 12.7815C9.54593 13.3877 10.5282 13.3856 11.1324 12.7815ZM21.6627 13.2899H26.3693C27.2269 13.2899 27.9198 13.9828 27.9198 14.8384C27.9198 15.6939 27.2269 16.3868 26.3693 16.3868H20.1122C19.2545 16.3868 18.5596 15.6939 18.5596 14.8384V13.9321L16.0985 16.3868L19.6559 19.9357C20.2622 20.542 20.2622 21.5222 19.6559 22.1263L14.2269 27.5469C13.6206 28.151 12.6383 28.151 12.0321 27.5469C11.4258 26.9406 11.4258 25.9604 12.0321 25.3563L16.3668 21.0321L13.8868 18.5584L6.64743 25.783C6.04327 26.3871 5.06098 26.3871 4.45471 25.783C3.84843 25.1767 3.84843 24.1986 4.45471 23.5924L12.9235 15.1785L19.0158 9.09883C19.996 8.11865 21.6627 8.83477 21.6627 10.1931V13.2899Z"/>
</svg>
